# xmcd
#
# Track frame offsets:
#	150
#	14420
#	30357
#	48452
#	64710
#	81060
#	99187
#	118110
#	131930
#	146500
#	165307
#	180250
#	198030
#
# Disc length: 2827 seconds
#
# Revision: 1
# Processed by: cddbd v1.5.1PL0 Copyright (c) Steve Scherf et al.
# Submitted via: audiograbber 1.83.01
#
DISCID=9d0b090d
DTITLE=Kake Randelin - Bella Bella
DYEAR=1990
DGENRE=
TTITLE0=Bella Bella
TTITLE1=Sun näin silloin ensi kerran
TTITLE2=Sinua minä hain
TTITLE3=Viimeinen vapaailta
TTITLE4=Löysin reissusta rakkaan
TTITLE5=Koti kaunein on sittenkin siellä
TTITLE6=Mun kultasein
TTITLE7=Tyyntä ja myrskyä
TTITLE8=Kun sinun ovesi aukaisen
TTITLE9=Kun vasten mua painut
TTITLE10=Suppusuu
TTITLE11=Vielä kerran
TTITLE12=Seudun rikkain mies
EXTD=
EXTT0=
EXTT1=
EXTT2=
EXTT3=
EXTT4=
EXTT5=
EXTT6=
EXTT7=
EXTT8=
EXTT9=
EXTT10=
EXTT11=
EXTT12=
PLAYORDER=
